<?xml version="1.0" standalone="no"?>
<!DOCTYPE svg PUBLIC "-//W3C//DTD SVG 20010904//EN"
 "http://www.w3.org/TR/2001/REC-SVG-20010904/DTD/svg10.dtd">
<svg version="1.0" xmlns="http://www.w3.org/2000/svg"
 width="580.000000pt" height="580.000000pt" viewBox="0 0 580.000000 580.000000"
 preserveAspectRatio="xMidYMid meet">
<metadata>
Created by potrace 1.11, written by Peter Selinger 2001-2013
</metadata>
<g transform="translate(0.000000,580.000000) scale(0.100000,-0.100000)"
fill="#000000" stroke="none">
<path d="M2712 5739 c-197 -33 -380 -143 -488 -294 -164 -231 -178 -486 -38
-697 46 -69 150 -172 217 -214 20 -14 37 -26 37 -28 0 -2 -43 -116 -96 -252
-138 -358 -172 -455 -205 -582 -33 -127 -35 -155 -15 -174 12 -12 9 -53 -20
-279 -18 -145 -36 -303 -40 -351 -4 -47 -10 -92 -14 -98 -12 -19 -62 13 -114
72 -51 59 -53 56 -36 -51 12 -74 58 -180 100 -233 28 -34 30 -43 30 -123 l0
-86 -93 -44 c-112 -52 -263 -106 -371 -131 -77 -18 -79 -18 -90 0 -24 42 -72
90 -103 102 -18 8 -55 14 -83 14 l-50 0 0 53 c0 69 -24 148 -56 186 -13 16
-59 47 -101 68 -85 42 -133 91 -154 155 -7 24 -14 94 -16 158 l-2 115 -43 32
c-64 48 -148 77 -208 71 -102 -10 -174 -106 -174 -233 0 -145 58 -257 161
-314 62 -34 72 -51 30 -51 -35 0 -119 -44 -156 -81 -97 -97 -91 -234 14 -297
45 -27 45 -27 40 -72 -8 -57 5 -90 55 -148 35 -39 40 -51 40 -94 0 -132 82
-175 345 -180 147 -3 164 -1 205 18 25 12 63 27 85 33 22 6 62 29 89 51 42 35
54 40 100 40 90 0 347 75 468 136 26 13 51 24 56 24 5 0 12 -57 15 -128 14
-266 51 -432 137 -608 89 -183 205 -345 359 -501 151 -153 255 -221 446 -293
61 -22 140 -55 177 -72 63 -29 70 -35 93 -87 36 -78 97 -155 138 -174 126 -60
234 48 267 268 15 98 8 190 -31 432 -31 192 -35 253 -19 253 6 0 29 17 53 38
23 22 57 44 75 50 l32 11 0 -35 c0 -64 39 -114 90 -114 20 0 21 -4 15 -42 -4
-24 -16 -78 -26 -122 -11 -43 -18 -84 -15 -91 7 -20 104 -48 168 -49 l59 -1
-7 -75 -6 -75 153 6 c179 7 221 20 359 104 158 97 219 122 397 160 124 26 217
69 292 134 l44 38 -22 134 c-26 156 -155 674 -206 827 -78 233 -156 333 -318
411 -77 37 -217 81 -260 81 -19 0 -70 -45 -78 -69 -4 -10 -13 -11 -49 -1 -62
16 -400 143 -400 150 0 3 37 71 83 150 63 110 92 151 120 169 49 32 205 263
268 397 79 167 92 234 93 474 1 113 -1 247 -4 299 l-5 94 140 71 c152 77 212
115 262 168 39 40 104 178 128 268 25 98 30 259 11 350 -58 275 -290 482 -656
583 -64 18 -103 21 -260 21 -167 -1 -194 -3 -282 -27 -53 -14 -137 -42 -186
-61 l-89 -36 -84 83 c-120 117 -247 179 -438 212 -91 16 -254 18 -339 4z m394
-48 c170 -42 275 -102 385 -219 87 -93 136 -158 183 -243 20 -35 36 -57 36
-49 0 32 -28 117 -56 170 -16 30 -30 58 -32 63 -11 23 223 96 377 118 350 49
761 -116 931 -374 106 -162 125 -387 51 -605 -44 -126 -84 -186 -166 -244 -68
-48 -292 -164 -301 -155 -9 8 -24 123 -24 179 0 49 3 58 21 63 30 10 97 73
126 118 28 44 45 124 36 167 -5 29 -7 27 -27 -32 -50 -149 -122 -218 -226
-218 -151 0 -308 159 -351 354 -12 57 -13 58 -22 30 -27 -80 -111 -175 -203
-230 -92 -54 -180 -76 -324 -81 -312 -11 -459 82 -626 395 -21 40 -40 69 -42
63 -6 -19 50 -168 89 -234 58 -98 157 -199 227 -232 94 -45 178 -58 332 -52
149 6 218 21 325 71 85 40 137 81 187 147 l38 51 33 -74 c76 -164 173 -249
300 -264 65 -8 60 4 77 -169 33 -333 35 -600 5 -746 -18 -90 -65 -204 -126
-308 -54 -92 -158 -241 -168 -241 -4 0 -14 36 -23 79 -60 290 -306 563 -639
708 -88 38 -106 49 -90 55 12 4 21 10 21 12 0 3 -35 16 -77 29 -70 22 -104 25
-318 32 -259 7 -354 -2 -500 -46 -76 -23 -82 -23 -167 -13 -51 6 -62 3 -105
-22 -26 -15 -42 -29 -35 -32 8 -2 2 -16 -18 -39 -17 -19 -35 -46 -40 -59 -13
-34 -31 -31 -20 4 252 753 337 965 495 1227 40 67 58 104 47 100 -69 -26 -256
-32 -317 -9 -14 5 -17 4 -10 -4 19 -19 118 -42 187 -42 37 0 68 -3 68 -6 0 -4
-16 -33 -36 -65 -19 -32 -59 -109 -88 -170 l-52 -111 -61 46 c-212 159 -304
364 -259 576 48 231 226 432 452 510 152 53 355 61 520 21z m162 -2288 c52
-56 110 -150 127 -207 28 -94 11 -230 -33 -269 -9 -8 -45 -17 -78 -20 -69 -6
-138 -33 -192 -76 -34 -27 -40 -28 -63 -16 -54 28 -110 126 -129 223 -22 110
0 220 63 308 40 57 121 91 226 93 38 1 48 -4 79 -36z m-808 -78 c42 -22 68
-60 91 -138 16 -52 20 -82 15 -125 -7 -67 -56 -173 -92 -201 l-25 -20 -61 40
c-34 21 -78 44 -99 49 -33 9 -40 16 -51 53 -7 23 -13 83 -13 134 0 86 2 93 31
135 55 75 141 106 204 73z m-1724 -240 c27 -8 70 -27 95 -43 l46 -30 0 -98 c0
-184 44 -269 174 -339 42 -22 84 -47 94 -55 31 -25 53 -91 61 -175 7 -86 19
-119 55 -150 l23 -20 -22 36 c-12 20 -22 39 -22 43 0 10 76 7 107 -5 73 -27
112 -99 113 -205 0 -106 -31 -198 -85 -250 -23 -22 -51 -43 -63 -46 -20 -6
-20 -5 -1 36 10 22 18 52 18 66 -1 24 -1 24 -11 -5 -18 -50 -55 -97 -99 -127
-69 -46 -86 -35 -29 18 57 53 85 115 77 171 -2 21 0 57 6 80 18 69 -5 146 -59
197 -41 40 -44 46 -44 97 0 32 -10 76 -23 109 -18 46 -29 59 -67 78 -36 19
-55 22 -98 18 -43 -4 -57 -1 -72 14 -10 10 -44 23 -77 30 -32 6 -65 16 -73 21
-8 5 -37 21 -64 37 -115 64 -162 136 -172 265 -10 112 29 202 100 233 40 17
52 17 112 -1z m3126 -446 c20 -11 48 -65 48 -94 0 -9 -9 -15 -25 -15 -32 0
-93 -31 -122 -62 -32 -34 -60 -104 -72 -178 -17 -101 -15 -108 24 -127 52 -25
43 -36 -26 -31 -56 4 -65 8 -95 40 -41 46 -58 105 -52 188 9 118 72 217 173
268 44 23 115 28 147 11z m-3007 -153 l30 -14 -54 -7 c-34 -5 -48 -11 -39 -16
22 -12 78 -14 161 -5 101 11 132 -1 158 -61 10 -24 21 -65 25 -92 6 -46 4 -51
-30 -89 -20 -22 -60 -50 -88 -62 -45 -19 -64 -22 -130 -17 -43 4 -78 5 -78 3
0 -2 31 -11 69 -21 87 -21 114 -15 198 41 72 48 77 48 127 -5 24 -25 30 -42
34 -89 5 -71 -11 -107 -67 -151 -64 -51 -106 -64 -180 -57 -35 4 -79 13 -99
22 -48 20 -53 10 -5 -14 48 -25 91 -34 155 -34 51 1 56 3 139 66 41 31 48 33
52 17 16 -62 -73 -168 -163 -195 -96 -29 -250 -15 -315 28 -34 22 -45 48 -50
111 -4 47 -11 63 -50 110 -38 47 -45 62 -45 100 0 50 12 64 32 37 26 -36 39
-35 22 2 -12 25 -34 44 -76 66 -71 38 -98 77 -98 141 0 80 71 160 168 189 43
13 164 10 197 -4z m1841 -70 c85 -36 166 -55 262 -63 45 -3 82 -9 82 -12 0 -3
-13 -21 -28 -40 l-28 -33 -60 30 c-131 66 -243 78 -414 42 -52 -11 -99 -20
-103 -20 -5 0 -7 17 -5 37 3 35 5 38 43 44 22 4 65 16 95 27 64 23 75 22 156
-12z m1868 -32 c90 -22 235 -96 293 -148 55 -49 105 -135 146 -252 55 -152
195 -709 223 -879 l16 -100 -43 -38 c-61 -55 -151 -94 -265 -117 -159 -31
-273 -78 -414 -169 -106 -69 -158 -84 -307 -89 -73 -2 -133 -1 -133 2 0 4 14
127 31 274 34 299 37 438 14 617 -26 200 -59 328 -114 440 -53 109 -77 138
-116 138 -19 0 -25 5 -25 21 0 28 18 46 45 46 11 0 56 -20 99 -45 44 -25 82
-45 85 -45 3 0 -16 22 -42 48 l-47 48 108 33 c60 18 149 54 198 80 77 40 92
53 112 91 35 67 40 69 136 44z m-741 -281 c3 -5 7 -26 8 -48 l4 -39 -59 -18
c-33 -10 -61 -16 -64 -13 -8 8 29 99 46 113 17 13 58 16 65 5z m-1002 -102
c-26 -49 -113 -130 -162 -151 -65 -27 -105 -21 -146 23 -29 31 -69 114 -59
124 2 3 28 0 56 -6 73 -16 165 -12 235 9 82 24 88 24 76 1z m825 -31 c58 -29
139 -117 174 -192 31 -65 35 -84 24 -113 -6 -14 -15 -9 -52 27 -53 51 -47 40
31 -65 70 -93 93 -143 103 -217 5 -43 16 -66 46 -104 66 -84 65 -117 -7 -163
-28 -18 -58 -47 -67 -65 -26 -48 -34 -53 -62 -40 -34 15 -51 71 -36 117 8 25
26 43 67 69 53 33 54 35 26 38 -27 3 -28 5 -33 73 -3 39 -9 76 -13 82 -4 7
-12 38 -17 70 -5 31 -14 61 -19 66 -7 7 -8 -3 -4 -29 6 -36 5 -38 -10 -25 -22
18 -22 16 13 -53 34 -67 37 -107 14 -168 -23 -58 -57 -93 -105 -107 -22 -7
-62 -32 -89 -56 -52 -46 -66 -48 -102 -17 -20 17 -23 66 -7 109 22 59 87 104
169 118 40 7 42 9 22 16 -13 5 -27 7 -32 4 -4 -3 -10 13 -12 34 -3 35 1 42 34
71 30 24 38 38 38 64 0 18 -3 36 -7 39 -3 4 -14 28 -22 54 -9 26 -23 49 -31
51 -12 4 -13 2 -4 -9 6 -8 14 -22 17 -31 5 -15 1 -17 -26 -12 -28 5 -30 4 -12
-7 45 -27 65 -53 65 -85 0 -37 -18 -53 -110 -99 -33 -17 -86 -59 -132 -106
-43 -44 -85 -79 -93 -79 -8 0 -29 13 -47 29 -29 26 -33 35 -36 97 -3 59 -1 73
18 97 33 42 74 58 169 66 80 7 84 9 56 20 -16 6 -38 25 -47 42 -19 33 -87 68
-132 69 -39 0 -66 -26 -66 -64 0 -17 -9 -45 -20 -63 -44 -74 -239 -85 -306
-18 -50 50 -24 89 66 98 33 4 70 12 81 18 26 14 49 68 49 116 0 97 22 110 200
123 115 8 170 20 170 36 0 3 -16 2 -35 -2 -34 -6 -35 -5 -35 23 0 67 91 94
176 53z m312 -322 c12 -40 25 -88 28 -105 8 -39 10 -40 43 -11 19 17 18 14 -5
-12 -25 -28 -29 -40 -24 -60 5 -14 8 -51 9 -84 l1 -59 -21 26 c-11 15 -24 54
-30 88 -5 34 -22 84 -37 113 -18 33 -29 72 -32 114 -5 61 -5 62 21 62 24 0 28
-7 47 -72z m-328 -278 c0 -12 -12 -26 -30 -35 -26 -13 -30 -13 -30 -1 0 8 12
24 28 35 33 25 32 25 32 1z m365 -443 c-10 -95 -18 -178 -18 -184 0 -7 -3 -13
-7 -13 -15 0 -110 31 -110 36 0 3 9 40 19 82 11 43 22 97 26 122 4 25 13 60
21 77 14 34 76 81 83 62 2 -6 -5 -88 -14 -182z"/>
<path d="M3176 3280 c-26 -32 -46 -87 -46 -130 0 -76 54 -160 102 -160 105 0
147 211 59 299 -32 32 -83 28 -115 -9z m111 -12 c31 -40 14 -138 -23 -138 -46
0 -72 78 -44 131 12 21 52 26 67 7z"/>
<path d="M2397 3222 c-52 -57 -48 -195 6 -241 25 -20 65 -16 93 10 76 71 40
249 -50 249 -19 0 -40 -8 -49 -18z m103 -31 c24 -46 5 -121 -30 -121 -44 0
-63 85 -29 127 16 19 47 16 59 -6z"/>
<path d="M4487 2203 c-8 -10 -18 -29 -22 -43 -5 -22 0 -28 50 -54 l56 -29 42
39 42 39 -40 -43 -39 -42 34 -30 c19 -16 38 -29 43 -30 4 0 7 -7 7 -16 0 -9 9
-18 20 -21 11 -3 20 -12 20 -21 0 -13 2 -13 18 1 9 8 30 17 46 19 l28 3 -50
75 c-28 41 -67 90 -87 108 -64 59 -137 78 -168 45z"/>
<path d="M4742 1948 c-17 -17 -15 -39 8 -68 16 -20 22 -23 37 -14 10 6 19 25
21 43 3 26 -1 33 -23 41 -32 12 -29 12 -43 -2z"/>
<path d="M4827 1876 c-4 -9 -18 -21 -33 -26 -24 -10 -25 -12 -12 -28 29 -34
70 -115 119 -235 27 -67 47 -106 44 -87 -3 19 -10 67 -16 105 -11 74 -63 243
-84 271 -11 16 -12 16 -18 0z"/>
<path d="M4465 1270 c12 -73 21 -310 17 -427 l-4 -123 26 0 c17 0 45 17 81 50
30 28 62 50 70 50 7 0 16 4 20 10 8 14 -54 167 -128 315 -80 158 -90 173 -82
125z"/>
</g>
</svg>
